<svg width="33" height="29" viewBox="0 0 35 26" fill="none" xmlns="http://www.w3.org/2000/svg">
<path d="M33.9363 26H1.06374C0.472773 26 0 25.5251 0 24.9315V1.06849C0 0.474885 0.472773 0 1.06374 0H33.9363C34.5272 0 35 0.474885 35 1.06849V24.9389C35 25.5251 34.5198 26 33.9363 26ZM2.12748 23.863H32.8725V2.13699H2.12748V23.863Z" fill="#EEEEEE"/>
<path d="M17.5002 17.8903C17.2343 17.8903 16.9684 17.7938 16.7689 17.5935L0.340035 1.84807C-0.0884155 1.43997 -0.10319 0.764742 0.3031 0.334377C0.70939 -0.0959885 1.38161 -0.110829 1.81006 0.297276L17.5002 15.3452L33.1904 0.297276C33.6188 -0.110829 34.2911 -0.0959885 34.6974 0.334377C35.1036 0.764742 35.0889 1.43997 34.6604 1.84807L18.2316 17.6009C18.0321 17.7938 17.7662 17.8903 17.5002 17.8903Z" fill="#EEEEEE"/>
<path d="M1.07856 25.9996C0.79785 25.9996 0.51714 25.8883 0.310302 25.6657C-0.0959875 25.2353 -0.0812133 24.5601 0.347237 24.152L12.7871 12.2205C13.2155 11.8124 13.8878 11.8272 14.2941 12.2576C14.7003 12.688 14.6856 13.3632 14.2571 13.7713L1.80988 25.7102C1.61103 25.8957 1.34989 25.999 1.07856 25.9996ZM33.9215 25.9996C33.6556 25.9996 33.3897 25.9031 33.1902 25.7028L20.7504 13.7787C20.3219 13.3706 20.3071 12.6954 20.7134 12.265C21.1197 11.8346 21.7919 11.8198 22.2204 12.2279L34.6602 24.1594C35.0887 24.5675 35.1035 25.2428 34.6972 25.6731C34.4829 25.8957 34.2022 25.9996 33.9215 25.9996Z" fill="#EEEEEE"/>
</svg>
