<svg width="33" height="29" viewBox="0 0 33 29" fill="none" xmlns="http://www.w3.org/2000/svg">
<path d="M0.571281 14.0804L8.64113 18.1197C8.79421 18.1961 8.96376 18.2332 9.13461 18.2276C9.30546 18.2221 9.47227 18.1741 9.62012 18.0879L16.8031 13.894L12.4554 17.7634C12.346 17.8607 12.2585 17.9802 12.1985 18.114C12.1385 18.2477 12.1075 18.3928 12.1075 18.5395V27.9644C12.1075 28.9587 13.3711 29.3771 13.9637 28.5872L17.4521 23.9293L26.0788 28.8634C26.2206 28.9444 26.3795 28.9904 26.5425 28.9977C26.7054 29.0051 26.8678 28.9735 27.0162 28.9055C27.1646 28.8376 27.2949 28.7353 27.3963 28.607C27.4977 28.4786 27.5674 28.328 27.5996 28.1674L32.9799 1.23911C33.0163 1.05688 33.0031 0.868184 32.9418 0.692813C32.8806 0.517443 32.7735 0.36186 32.6317 0.242381C32.49 0.122903 32.3188 0.0439316 32.1362 0.0137493C31.9536 -0.016433 31.7663 0.00328605 31.5939 0.0708384L0.656531 12.1886C0.470502 12.2614 0.309538 12.387 0.193182 12.5499C0.0768254 12.7129 0.0100819 12.9063 0.00105468 13.1067C-0.00797257 13.307 0.0411047 13.5056 0.142328 13.6785C0.243551 13.8514 0.392566 13.991 0.571281 14.0804ZM30.5874 2.6891L25.8588 26.3542L17.6845 21.6784C17.4663 21.5541 17.2105 21.5138 16.9649 21.5648C16.7193 21.6159 16.5005 21.7549 16.3493 21.9559L14.17 24.8656V19.0049L25.9276 8.54289C26.8584 7.71571 25.7887 6.24501 24.7258 6.87196L9.06463 16.0165L3.57565 13.2698L30.5874 2.6891Z" fill="#EEEEEE"/>
</svg>
