<svg width="33" height="29" viewBox="0 0 33 29" fill="none" xmlns="http://www.w3.org/2000/svg">
<path d="M25.7344 16.2096C26.5806 9.18431 25.3279 4.74905 23.0682 2.74299L23.0694 2.74182C19.4223 -0.683987 7.10535 -1.19104 2.74206 2.89569C0.782599 4.89476 0.0924145 7.82867 0.0167778 11.4608C-0.0588588 15.0941 -0.148677 21.9003 6.28162 23.7466H6.28753L6.28162 26.5663C6.28162 26.5663 6.23789 27.7086 6.97771 27.9383C7.82389 28.2087 8.20681 27.6783 10.8387 24.5777C15.2398 24.9542 18.6198 24.0917 19.0039 23.9658C19.8927 23.672 24.9213 23.0158 25.7344 16.2096ZM11.2725 22.5938C11.2725 22.5938 8.4869 26.0196 7.62062 26.909C7.33698 27.1981 7.02617 27.1713 7.03089 26.5978C7.03089 26.2213 7.05217 21.9166 7.05217 21.9166C1.60042 20.3756 1.92188 14.5801 1.98097 11.5482C2.04006 8.51523 2.6026 6.03126 4.26188 4.35857C8.08981 0.818521 18.8881 1.60999 21.6394 4.16041C25.0029 7.10131 23.8057 15.41 23.8128 15.6932C23.1214 21.3746 19.0465 21.7347 18.2972 21.9807C17.9769 22.0856 15.0046 22.8398 11.2725 22.5938Z" fill="#EEEEEE"/>
<path d="M12.8138 5.02393C12.3588 5.02393 12.3588 5.72331 12.8138 5.72914C16.3439 5.75595 19.2512 8.18281 19.2831 12.6344C19.2831 13.1041 19.9804 13.0983 19.9744 12.6286C19.9366 7.83195 16.7611 5.05074 12.8138 5.02393Z" fill="#EEEEEE"/>
<path d="M17.457 11.8968C17.4464 12.3607 18.1425 12.3829 18.1484 11.9131C18.2063 9.2683 16.5529 7.08973 13.4459 6.86009C12.9909 6.82746 12.9437 7.53267 13.3975 7.56531C16.092 7.76696 17.5114 9.5807 17.457 11.8968ZM16.7125 14.9053C16.1287 14.572 15.5342 14.7794 15.2884 15.107L14.7743 15.7632C14.5131 16.0966 14.025 16.0523 14.025 16.0523C10.463 15.1233 9.51046 11.4469 9.51046 11.4469C9.51046 11.4469 9.46673 10.9492 9.79292 10.6822L10.4358 10.1577C10.7573 9.90591 10.9606 9.29978 10.6332 8.70413C9.75864 7.14568 9.17128 6.60832 8.87228 6.19568C8.55791 5.80752 8.08518 5.7201 7.59355 5.98237H7.58291C6.56063 6.57218 5.44145 7.67604 5.79954 8.81254C6.41054 10.0108 7.53327 13.8306 11.1118 16.7167C12.7936 18.0817 15.455 19.4805 16.5848 19.8033L16.5955 19.8197C17.7088 20.1857 18.7913 19.0387 19.3692 18.0001V17.9919C19.6257 17.4896 19.5406 17.014 19.1659 16.7027C18.5018 16.064 17.4996 15.3588 16.7125 14.9053Z" fill="#EEEEEE"/>
<path d="M13.9329 9.46194C15.0687 9.52721 15.6194 10.1124 15.6785 11.3141C15.6998 11.7839 16.3911 11.7513 16.3698 11.2815C16.2942 9.71255 15.4646 8.83832 13.9707 8.75673C13.5157 8.72992 13.4732 9.43513 13.9329 9.46194Z" fill="#EEEEEE"/>
</svg>
