<svg  viewBox="20 20 200 200" fill="none" xmlns="http://www.w3.org/2000/svg">
<g filter="url(#filter0_d_13_849)">
<path d="M205.348 145.293C204.501 146.243 203.507 146.898 202.365 147.258C201.223 147.617 200.034 147.624 198.798 147.279C196.91 146.752 195.51 145.647 194.6 143.964C193.689 142.28 193.5 140.483 194.033 138.573L196.875 128.392L220.473 134.979L217.838 144.419C217.317 146.284 216.263 147.673 214.676 148.587C213.082 149.523 211.375 149.737 209.555 149.229C207.442 148.639 206.04 147.327 205.348 145.293ZM214.905 143.6L216.665 137.296L209.451 135.282L207.691 141.586C207.415 142.575 207.531 143.504 208.04 144.372C208.548 145.241 209.308 145.817 210.319 146.099C211.308 146.375 212.248 146.262 213.139 145.76C214.047 145.286 214.635 144.566 214.905 143.6ZM198.933 132.346L196.966 139.391C196.671 140.448 196.794 141.439 197.335 142.365C197.876 143.291 198.686 143.905 199.764 144.206C200.821 144.501 201.823 144.381 202.772 143.847C203.708 143.357 204.323 142.584 204.618 141.528L206.585 134.482L198.933 132.346Z" fill="#BCBCBC"/>
<path d="M194.445 171.276L196.961 172.929L195.289 175.474L180.664 165.864L182.336 163.319L184.851 164.972C183.741 162.456 183.986 159.979 185.588 157.541C186.946 155.474 188.834 154.216 191.251 153.766C193.701 153.309 195.998 153.786 198.143 155.195C200.269 156.592 201.608 158.505 202.162 160.935C202.715 163.365 202.319 165.603 200.974 167.651C199.372 170.088 197.196 171.297 194.445 171.276ZM187.834 159.477C186.86 160.959 186.544 162.524 186.885 164.172C187.265 165.846 188.186 167.163 189.648 168.124C191.13 169.098 192.695 169.415 194.343 169.074C196.011 168.745 197.331 167.84 198.305 166.358C199.266 164.896 199.566 163.334 199.206 161.673C198.865 160.025 197.953 158.714 196.471 157.74C195.009 156.779 193.434 156.456 191.747 156.772C190.099 157.113 188.795 158.015 187.834 159.477Z" fill="#BCBCBC"/>
<path d="M161.94 186.894L170.611 198.634L168.162 200.443L157.765 186.367L177.049 172.122L187.446 186.198L184.997 188.008L176.326 176.268L170.357 180.676L179.029 192.416L176.58 194.225L167.908 182.486L161.94 186.894Z" fill="#BCBCBC"/>
<path d="M132.154 213.7L117.015 214.402L116.205 196.92L119.247 196.779L119.922 211.359L128.978 210.939L128.302 196.36L131.344 196.219L132.154 213.7Z" fill="#BCBCBC"/>
<path d="M95.0401 212.128C92.6682 211.514 90.8716 210.121 89.6502 207.949C88.4287 205.777 88.1366 203.46 88.7738 200.998C89.4169 198.513 90.7993 196.617 92.921 195.311C95.0143 194.021 97.2582 193.686 99.6526 194.305C102.454 195.03 104.299 196.701 105.188 199.317L107.696 189.626L110.644 190.389L104.506 214.108L101.558 213.345L102.312 210.431C100.265 212.287 97.8411 212.853 95.0401 212.128ZM99.2887 197.248C97.5945 196.809 96.0224 197.017 94.5722 197.871C93.1103 198.77 92.1601 200.067 91.7217 201.761C91.2774 203.478 91.4822 205.061 92.3361 206.511C93.1841 207.984 94.4552 208.94 96.1494 209.378C97.8662 209.823 99.4526 209.607 100.909 208.73C102.359 207.876 103.306 206.591 103.75 204.874C104.189 203.18 103.987 201.585 103.145 200.09C102.291 198.64 101.005 197.692 99.2887 197.248Z" fill="#BCBCBC"/>
<path d="M71.0596 184.561C73.5015 183.99 75.8226 184.387 78.023 185.754C80.2233 187.12 81.609 189.024 82.1802 191.466C82.7513 193.908 82.3538 196.229 80.9876 198.43C79.6215 200.63 77.7174 202.016 75.2755 202.587C72.8336 203.158 70.5124 202.76 68.3121 201.394C66.1117 200.028 64.726 198.124 64.1549 195.682C63.5762 193.208 63.9638 190.88 65.3177 188.7C66.6715 186.519 68.5855 185.14 71.0596 184.561ZM76.4537 188.281C74.967 187.358 73.4043 187.088 71.7656 187.471C70.127 187.855 68.84 188.799 67.9046 190.306C66.9692 191.813 66.6931 193.385 67.0764 195.024C67.4596 196.663 68.3946 197.944 69.8813 198.867C71.3482 199.778 72.901 200.041 74.5397 199.658C76.1783 199.275 77.4654 198.33 78.4008 196.823C79.3362 195.317 79.6122 193.744 79.229 192.105C78.8457 190.467 77.9206 189.192 76.4537 188.281Z" fill="#BCBCBC"/>
<path d="M50.7474 175.303C50.0708 173.479 50.4501 171.899 51.8855 170.565C52.9791 169.548 54.1927 169.088 55.5265 169.186C56.8431 169.3 58.1052 170.006 59.3127 171.305L65.2709 177.713L52.4554 189.63L46.9739 183.735C45.7981 182.47 45.2006 181.194 45.1814 179.905C45.1463 178.6 45.6585 177.454 46.7179 176.469C47.9482 175.325 49.2914 174.936 50.7474 175.303ZM49.0684 181.978L52.4288 185.592L55.7865 182.47L52.4261 178.856C51.2185 177.557 50.0424 177.44 48.8975 178.505C47.8039 179.522 47.8609 180.679 49.0684 181.978ZM61.2203 177.417L57.407 173.316C56.8033 172.667 56.1887 172.314 55.5634 172.258C54.9221 172.186 54.3196 172.411 53.7557 172.936C53.226 173.428 52.9827 173.989 53.0259 174.618C53.0361 175.246 53.3431 175.884 53.9468 176.534L57.7601 180.635L61.2203 177.417Z" fill="#BCBCBC"/>
<path d="M33.9001 172.288C34.215 172.779 34.3126 173.298 34.1929 173.846C34.0732 174.394 33.7776 174.82 33.3063 175.122C32.8349 175.424 32.3252 175.516 31.7772 175.396C31.2095 175.289 30.7682 174.99 30.4532 174.499C30.1509 174.027 30.0694 173.511 30.2088 172.951C30.3285 172.403 30.624 171.977 31.0954 171.675C31.5668 171.373 32.0765 171.281 32.6245 171.401C33.1725 171.521 33.5977 171.816 33.9001 172.288ZM50.4984 159.853L52.1424 162.416L37.4124 171.864L35.7684 169.301L50.4984 159.853Z" fill="#BCBCBC"/>
<path d="M25.6376 148.295L39.2437 143.015L38.3699 140.763L45.4503 138.015L46.5394 140.821L42.1671 142.518L46.9158 154.754L51.2881 153.057L52.3771 155.863L45.2967 158.611L44.5242 156.621C42.6834 156.134 40.4687 156.393 37.8801 157.397L30.3103 160.336L25.6376 148.295ZM43.2706 153.391L40.3327 145.821L29.3695 150.076L31.8642 156.504L36.7911 154.591C39.1839 153.663 41.3437 153.262 43.2706 153.391Z" fill="#BCBCBC"/>
<path d="M28.1648 123.173L20.911 123.79L20.653 120.756L38.09 119.272L38.348 122.307L31.0594 122.926L31.8276 131.959L39.1163 131.339L39.3743 134.373L21.9373 135.856L21.6792 132.822L28.933 132.205L28.1648 123.173Z" fill="#BCBCBC"/>
<path d="M33.2742 107.576L23.1593 95.6343L23.6459 93.2331L40.7973 96.7088L40.1995 99.6588L28.1592 97.2189L38.2741 109.161L37.7875 111.562L20.6362 108.086L21.2339 105.136L33.2742 107.576Z" fill="#BCBCBC"/>
<path d="M37.3255 80.2816L49.2672 76.5847L47.5777 79.9661L36.5906 83.3966L44.0108 87.1046L42.6497 89.8284L26.9954 82.0058L28.3565 79.282L35.2757 82.7395L31.7356 72.5192L33.4878 69.0126L37.3255 80.2816Z" fill="#BCBCBC"/>
<path d="M66.78 34.8692L74.9723 46.9481L76.9709 45.5925L81.2341 51.8782L78.743 53.5678L76.1105 49.6863L65.2484 57.0538L67.8809 60.9353L65.3899 62.6249L61.1268 56.3393L62.8937 55.1408C62.9562 53.2376 62.2081 51.137 60.6495 48.839L56.0917 42.1189L66.78 34.8692ZM65.7613 53.1958L72.4813 48.6377L65.8803 38.9051L60.1741 42.7755L63.1406 47.1494C64.5813 49.2736 65.4548 51.2891 65.7613 53.1958Z" fill="#BCBCBC"/>
<path d="M96.5511 38.5451C95.395 40.7706 93.5822 42.2738 91.1127 43.0547C88.6432 43.8356 86.2958 43.648 84.0703 42.4919C81.8449 41.3358 80.3417 39.5229 79.5608 37.0535C78.78 34.584 78.9676 32.2365 80.1238 30.011C81.2799 27.7855 83.0928 26.2823 85.5622 25.5014C88.0317 24.7204 90.3792 24.9081 92.6046 26.0642C94.8593 27.2355 96.3736 29.0448 97.1475 31.4921C97.9213 33.9393 97.7225 36.2903 96.5511 38.5451ZM90.2158 40.2182C91.8843 39.6905 93.1065 38.68 93.8824 37.1865C94.6582 35.6931 94.7788 34.101 94.2442 32.4102C93.7095 30.7194 92.6955 29.486 91.2021 28.7102C89.7087 27.9344 88.1277 27.8103 86.4592 28.3379C84.8129 28.8585 83.6018 29.8656 82.8259 31.359C82.0501 32.8524 81.9295 34.4445 82.4641 36.1354C82.9988 37.8262 84.0128 39.0595 85.5062 39.8353C86.9996 40.6112 88.5695 40.7388 90.2158 40.2182Z" fill="#BCBCBC"/>
<path d="M133.691 35.8735L141.591 23.5762L144.769 24.2834L133.762 40.8732C132.602 42.6469 131.25 43.8879 129.706 44.596C128.157 45.3268 126.552 45.4478 124.892 44.9587L125.508 42.1914C127.545 42.8122 129.336 42.0156 130.88 39.8016L131.291 39.2475L127.687 20.4812L130.83 21.1808L133.691 35.8735Z" fill="#BCBCBC"/>
<path d="M152.627 46.7586C150.29 45.5365 148.752 43.7445 148.013 41.3827C147.284 39.0002 147.525 36.6511 148.736 34.3354C149.948 32.0197 151.734 30.4921 154.096 29.7525C156.468 28.9922 158.823 29.2231 161.159 30.4452C162.689 31.2455 163.869 32.3369 164.7 33.7193C165.541 35.081 165.937 36.539 165.888 38.0932L162.943 38.2115C162.983 37.179 162.719 36.1983 162.151 35.2695C161.604 34.3515 160.814 33.6221 159.78 33.0814C158.23 32.2703 156.651 32.1162 155.045 32.6191C153.449 33.1535 152.246 34.1961 151.435 35.7468C150.634 37.2768 150.47 38.8497 150.941 40.4656C151.444 42.0717 152.471 43.2802 154.022 44.0914C155.056 44.6321 156.11 44.881 157.186 44.838C158.273 44.7744 159.249 44.4426 160.116 43.8427L161.714 46.3768C160.382 47.2604 158.907 47.7397 157.288 47.8144C155.669 47.8892 154.115 47.5372 152.627 46.7586Z" fill="#BCBCBC"/>
<path d="M176.558 39.9949L187.581 50.3953L175.572 63.1243L173.357 61.0346L183.373 50.4186L176.779 44.1976L166.764 54.8136L164.549 52.7239L176.558 39.9949Z" fill="#BCBCBC"/>
<path d="M198.17 58.2359C197.83 57.7617 197.706 57.2479 197.798 56.6944C197.889 56.1409 198.163 55.7011 198.618 55.375C199.073 55.0489 199.577 54.9316 200.131 55.0231C200.703 55.101 201.159 55.377 201.499 55.8513C201.825 56.3065 201.933 56.8177 201.822 57.3847C201.731 57.9382 201.458 58.378 201.002 58.7041C200.547 59.0302 200.043 59.1475 199.489 59.056C198.936 58.9646 198.496 58.6912 198.17 58.2359ZM182.231 71.5051L180.457 69.0296L194.684 58.8387L196.457 61.3142L182.231 71.5051Z" fill="#BCBCBC"/>
<path d="M197.307 79.3659L191.959 89.2467L190.446 86.0128L194.363 78.7719L186.281 77.1037L184.768 73.8698L195.763 76.1468L200.784 66.8054L202.311 70.071L198.707 76.7408L206.136 78.2509L207.648 81.4848L197.307 79.3659Z" fill="#BCBCBC"/>
<path d="M198.999 100.724L213.392 103.269L213.965 106.474L194.413 102.718C192.33 102.332 190.663 101.563 189.414 100.412C188.143 99.2646 187.412 97.8309 187.223 96.1106L190.014 95.6114C190.227 97.7303 191.652 99.0753 194.291 99.6463L194.96 99.811L210.884 89.247L211.451 92.4167L198.999 100.724Z" fill="#BCBCBC"/>
</g>
</svg>
